<svg width="122" height="122" viewBox="0 0 122 122" fill="none" xmlns="http://www.w3.org/2000/svg">
<path d="M34.77 54.8998C37.21 42.6998 48.19 33.5498 61 33.5498C70.15 33.5498 77.47 37.8198 82.35 44.5298L92.72 32.3298C85.4 23.7898 73.81 18.2998 61 18.2998C39.65 18.2998 21.96 34.1598 18.91 54.8998H6.09998L27.45 79.2998L48.8 54.8998H34.77ZM94.55 42.6998L73.2 67.0998H87.23C84.18 79.2998 73.81 88.4498 61 88.4498C51.85 88.4498 44.53 84.1798 39.65 77.4698L29.28 89.0598C36.6 98.2098 48.19 103.7 61 103.7C82.35 103.7 100.04 87.8398 103.09 67.0998H115.9L94.55 42.6998Z" fill="#7EA8E6"/>
</svg>
