<svg width="16" height="16" viewBox="0 0 16 16" fill="none" xmlns="http://www.w3.org/2000/svg">
<path d="M2.85004 2.15C2.75574 2.05892 2.62944 2.00852 2.49834 2.00966C2.36724 2.0108 2.24184 2.06339 2.14913 2.15609C2.05643 2.24879 2.00384 2.3742 2.0027 2.5053C2.00157 2.6364 2.05196 2.7627 2.14304 2.857L13.143 13.857C13.2373 13.9481 13.3636 13.9985 13.4947 13.9973C13.6258 13.9962 13.7512 13.9436 13.844 13.8509C13.9367 13.7582 13.9892 13.6328 13.9904 13.5017C13.9915 13.3706 13.9411 13.2443 13.85 13.15L2.85004 2.15ZM15 8.88C14.566 9.474 14.115 10 13.65 10.47L12.943 9.763C13.3724 9.33367 13.789 8.84367 14.193 8.293C14.2463 8.22002 14.2788 8.13397 14.2871 8.04399C14.2954 7.95401 14.2791 7.86347 14.24 7.782L14.195 7.707C12.445 5.307 10.475 4.087 8.26504 4.007L8.00904 4.002C7.74594 4.00073 7.48304 4.01676 7.22204 4.05L6.36004 3.188C6.90114 3.06311 7.45472 3.00037 8.01004 3.001C10.67 3.001 13.01 4.391 15 7.121C15.1878 7.37789 15.2889 7.68783 15.2889 8.006C15.2889 8.32417 15.1878 8.6341 15 8.891V8.88Z" fill="black"/>
<path d="M11 7.83C10.9577 7.0932 10.646 6.39766 10.1241 5.8758C9.6023 5.35395 8.90675 5.04223 8.16995 5L11 7.83ZM1.21995 6.83C1.58729 6.35 1.96729 5.91667 2.35995 5.53L3.06695 6.237C2.63762 6.66633 2.22095 7.15633 1.81695 7.707L1.76995 7.786C1.73765 7.85343 1.72089 7.92724 1.72089 8.002C1.72089 8.07676 1.73765 8.15057 1.76995 8.218L1.81395 8.292C3.56395 10.692 5.53395 11.912 7.74395 11.992L7.99995 11.997C8.26595 11.997 8.52829 11.981 8.78695 11.949L9.64795 12.809C9.10689 12.9342 8.55331 12.9973 7.99795 12.997C5.33795 12.997 2.99795 11.607 1.00795 8.877L0.925952 8.752C0.777658 8.4997 0.706407 8.20953 0.720977 7.91724C0.735547 7.62495 0.835302 7.3433 1.00795 7.107L1.22295 6.82L1.21995 6.83Z" fill="black"/>
<path d="M7.83 11C7.0932 10.9578 6.39766 10.6461 5.8758 10.1242C5.35395 9.60239 5.04223 8.90685 5 8.17004L7.83 11Z" fill="black"/>
</svg>
