<svg width="86" height="86" viewBox="0 0 86 86" fill="none" xmlns="http://www.w3.org/2000/svg">
<path d="M64.5 48.375C68.7766 48.375 72.8781 50.0739 75.9021 53.0979C78.9261 56.1219 80.625 60.2234 80.625 64.5C80.625 68.7766 78.9261 72.8781 75.9021 75.9021C72.8781 78.9261 68.7766 80.625 64.5 80.625C60.2234 80.625 56.1219 78.9261 53.0979 75.9021C50.0739 72.8781 48.375 68.7766 48.375 64.5C48.375 60.2234 50.0739 56.1219 53.0979 53.0979C56.1219 50.0739 60.2234 48.375 64.5 48.375ZM64.5 53.75C61.6489 53.75 58.9146 54.8826 56.8986 56.8986C54.8826 58.9146 53.75 61.6489 53.75 64.5C53.75 67.3511 54.8826 70.0854 56.8986 72.1014C58.9146 74.1174 61.6489 75.25 64.5 75.25C67.3511 75.25 70.0854 74.1174 72.1014 72.1014C74.1174 70.0854 75.25 67.3511 75.25 64.5C75.25 61.6489 74.1174 58.9146 72.1014 56.8986C70.0854 54.8826 67.3511 53.75 64.5 53.75ZM21.5 10.75C24.3511 10.75 27.0854 11.8826 29.1014 13.8986C31.1174 15.9146 32.25 18.6489 32.25 21.5C32.25 24.3511 31.1174 27.0854 29.1014 29.1014C27.0854 31.1174 24.3511 32.25 21.5 32.25C18.6489 32.25 15.9146 31.1174 13.8986 29.1014C11.8826 27.0854 10.75 24.3511 10.75 21.5C10.75 18.6489 11.8826 15.9146 13.8986 13.8986C15.9146 11.8826 18.6489 10.75 21.5 10.75ZM21.5 16.125C20.0745 16.125 18.7073 16.6913 17.6993 17.6993C16.6913 18.7073 16.125 20.0745 16.125 21.5C16.125 22.9255 16.6913 24.2927 17.6993 25.3007C18.7073 26.3087 20.0745 26.875 21.5 26.875C22.9255 26.875 24.2927 26.3087 25.3007 25.3007C26.3087 24.2927 26.875 22.9255 26.875 21.5C26.875 20.0745 26.3087 18.7073 25.3007 17.6993C24.2927 16.6913 22.9255 16.125 21.5 16.125ZM21.5 43C27.2022 43 32.6708 45.2652 36.7028 49.2972C40.7348 53.3292 43 58.7978 43 64.5C43 70.2022 40.7348 75.6708 36.7028 79.7028C32.6708 83.7348 27.2022 86 21.5 86C15.7978 86 10.3292 83.7348 6.2972 79.7028C2.26517 75.6708 0 70.2022 0 64.5C0 58.7978 2.26517 53.3292 6.2972 49.2972C10.3292 45.2652 15.7978 43 21.5 43ZM21.5 48.375C17.2234 48.375 13.1219 50.0739 10.0979 53.0979C7.07388 56.1219 5.375 60.2234 5.375 64.5C5.375 68.7766 7.07388 72.8781 10.0979 75.9021C13.1219 78.9261 17.2234 80.625 21.5 80.625C25.7766 80.625 29.8781 78.9261 32.9021 75.9021C35.9261 72.8781 37.625 68.7766 37.625 64.5C37.625 60.2234 35.9261 56.1219 32.9021 53.0979C29.8781 50.0739 25.7766 48.375 21.5 48.375ZM64.5 0C70.2022 0 75.6708 2.26517 79.7028 6.2972C83.7348 10.3292 86 15.7978 86 21.5C86 27.2022 83.7348 32.6708 79.7028 36.7028C75.6708 40.7348 70.2022 43 64.5 43C58.7978 43 53.3292 40.7348 49.2972 36.7028C45.2652 32.6708 43 27.2022 43 21.5C43 15.7978 45.2652 10.3292 49.2972 6.2972C53.3292 2.26517 58.7978 0 64.5 0ZM64.5 5.375C62.3824 5.375 60.2856 5.79209 58.3292 6.60244C56.3729 7.4128 54.5952 8.60056 53.0979 10.0979C51.6006 11.5952 50.4128 13.3729 49.6024 15.3292C48.7921 17.2856 48.375 19.3824 48.375 21.5C48.375 23.6176 48.7921 25.7144 49.6024 27.6708C50.4128 29.6271 51.6006 31.4048 53.0979 32.9021C54.5952 34.3994 56.3729 35.5872 58.3292 36.3976C60.2856 37.2079 62.3824 37.625 64.5 37.625C68.7766 37.625 72.8781 35.9261 75.9021 32.9021C78.9261 29.8781 80.625 25.7766 80.625 21.5C80.625 17.2234 78.9261 13.1219 75.9021 10.0979C72.8781 7.07388 68.7766 5.375 64.5 5.375Z" fill="#7EA8E6"/>
</svg>
