<svg width="100" height="100" viewBox="0 0 100 100" fill="none" xmlns="http://www.w3.org/2000/svg">
<path d="M50 25L45.5312 29.3531L62.9687 46.875H25V53.125H62.9687L45.5312 70.5406L50 75L75 50L50 25Z" fill="#7EA8E6"/>
<path d="M50 93.75C41.3471 93.75 32.8885 91.1841 25.6938 86.3768C18.4992 81.5695 12.8916 74.7367 9.58029 66.7424C6.26896 58.7482 5.40256 49.9515 7.09066 41.4648C8.77877 32.9782 12.9455 25.1826 19.0641 19.0641C25.1826 12.9455 32.9782 8.77877 41.4648 7.09066C49.9515 5.40256 58.7482 6.26896 66.7424 9.58029C74.7367 12.8916 81.5695 18.4992 86.3768 25.6938C91.1841 32.8885 93.75 41.3471 93.75 50C93.7368 61.5992 89.1232 72.7195 80.9213 80.9213C72.7195 89.1232 61.5992 93.7368 50 93.75ZM50 12.5C42.5832 12.5 35.333 14.6994 29.1661 18.8199C22.9993 22.9405 18.1928 28.7972 15.3545 35.6494C12.5163 42.5016 11.7736 50.0416 13.2206 57.3159C14.6675 64.5902 18.239 71.2721 23.4835 76.5165C28.728 81.761 35.4098 85.3325 42.6841 86.7795C49.9584 88.2264 57.4984 87.4838 64.3506 84.6455C71.2029 81.8072 77.0596 77.0007 81.1801 70.8339C85.3007 64.6671 87.5 57.4168 87.5 50C87.4884 40.058 83.5338 30.5264 76.5037 23.4963C69.4736 16.4662 59.9421 12.5116 50 12.5Z" fill="#7EA8E6"/>
</svg>
