<svg width="88" height="88" viewBox="0 0 88 88" fill="none" xmlns="http://www.w3.org/2000/svg">
<path fill-rule="evenodd" clip-rule="evenodd" d="M44 79.75C50.276 79.7592 56.4429 78.1084 61.875 74.965V63.25C61.875 59.9679 60.5712 56.8203 58.2504 54.4996C55.9297 52.1788 52.7821 50.875 49.5 50.875H38.5C35.2179 50.875 32.0703 52.1788 29.7496 54.4996C27.4288 56.8203 26.125 59.9679 26.125 63.25V74.965C31.5571 78.1084 37.724 79.7592 44 79.75ZM70.125 63.25V68.4035C74.8809 63.3122 78.0455 56.9422 79.2297 50.0765C80.414 43.2109 79.5664 36.1488 76.791 29.7584C74.0156 23.368 69.4335 17.9279 63.6079 14.1066C57.7823 10.2854 50.967 8.24967 44 8.24967C37.033 8.24967 30.2177 10.2854 24.3921 14.1066C18.5665 17.9279 13.9844 23.368 11.209 29.7584C8.43363 36.1488 7.58599 43.2109 8.77027 50.0765C9.95454 56.9422 13.1191 63.3122 17.875 68.4035V63.25C17.8734 58.9975 19.1863 54.8484 21.6339 51.3708C24.0816 47.8933 27.5443 45.2574 31.548 43.824C29.4711 41.4351 28.1252 38.4993 27.6709 35.3666C27.2165 32.234 27.6728 29.0367 28.9854 26.1563C30.298 23.2758 32.4115 20.8337 35.0737 19.1212C37.7359 17.4087 40.8346 16.4982 44 16.4982C47.1654 16.4982 50.2641 17.4087 52.9263 19.1212C55.5885 20.8337 57.702 23.2758 59.0146 26.1563C60.3272 29.0367 60.7835 32.234 60.3291 35.3666C59.8748 38.4993 58.5289 41.4351 56.452 43.824C60.4557 45.2574 63.9184 47.8933 66.3661 51.3708C68.8137 54.8484 70.1266 58.9975 70.125 63.25ZM44 88C55.6695 88 66.8611 83.3643 75.1127 75.1127C83.3643 66.8611 88 55.6695 88 44C88 32.3305 83.3643 21.1389 75.1127 12.8873C66.8611 4.6357 55.6695 0 44 0C32.3305 0 21.1389 4.6357 12.8873 12.8873C4.6357 21.1389 0 32.3305 0 44C0 55.6695 4.6357 66.8611 12.8873 75.1127C21.1389 83.3643 32.3305 88 44 88ZM52.25 33C52.25 35.188 51.3808 37.2865 49.8336 38.8336C48.2865 40.3808 46.188 41.25 44 41.25C41.812 41.25 39.7135 40.3808 38.1664 38.8336C36.6192 37.2865 35.75 35.188 35.75 33C35.75 30.812 36.6192 28.7135 38.1664 27.1664C39.7135 25.6192 41.812 24.75 44 24.75C46.188 24.75 48.2865 25.6192 49.8336 27.1664C51.3808 28.7135 52.25 30.812 52.25 33Z" fill="#7EA8E6"/>
</svg>
